<svg id="visual" viewBox="0 0 1920 1080" width="1920" height="1080" xmlns="http://www.w3.org/2000/svg" xmlns:xlink="http://www.w3.org/1999/xlink" version="1.1"><path d="M0 109L29.2 114.3C58.3 119.7 116.7 130.3 174.8 130.3C233 130.3 291 119.7 349.2 119.7C407.3 119.7 465.7 130.3 523.8 123.2C582 116 640 91 698.2 98.3C756.3 105.7 814.7 145.3 872.8 165.2C931 185 989 185 1047.2 176C1105.3 167 1163.7 149 1221.8 149C1280 149 1338 167 1396.2 167C1454.3 167 1512.7 149 1570.8 141.7C1629 134.3 1687 137.7 1745.2 144.8C1803.3 152 1861.7 163 1890.8 168.5L1920 174L1920 0L1890.8 0C1861.7 0 1803.3 0 1745.2 0C1687 0 1629 0 1570.8 0C1512.7 0 1454.3 0 1396.2 0C1338 0 1280 0 1221.8 0C1163.7 0 1105.3 0 1047.2 0C989 0 931 0 872.8 0C814.7 0 756.3 0 698.2 0C640 0 582 0 523.8 0C465.7 0 407.3 0 349.2 0C291 0 233 0 174.8 0C116.7 0 58.3 0 29.2 0L0 0Z" fill="#6198ff"></path><path d="M0 260L29.2 254.7C58.3 249.3 116.7 238.7 174.8 238.7C233 238.7 291 249.3 349.2 254.7C407.3 260 465.7 260 523.8 258.2C582 256.3 640 252.7 698.2 265.3C756.3 278 814.7 307 872.8 326.8C931 346.7 989 357.3 1047.2 351.8C1105.3 346.3 1163.7 324.7 1221.8 326.5C1280 328.3 1338 353.7 1396.2 359.2C1454.3 364.7 1512.7 350.3 1570.8 325.2C1629 300 1687 264 1745.2 249.5C1803.3 235 1861.7 242 1890.8 245.5L1920 249L1920 172L1890.8 166.5C1861.7 161 1803.3 150 1745.2 142.8C1687 135.7 1629 132.3 1570.8 139.7C1512.7 147 1454.3 165 1396.2 165C1338 165 1280 147 1221.8 147C1163.7 147 1105.3 165 1047.2 174C989 183 931 183 872.8 163.2C814.7 143.3 756.3 103.7 698.2 96.3C640 89 582 114 523.8 121.2C465.7 128.3 407.3 117.7 349.2 117.7C291 117.7 233 128.3 174.8 128.3C116.7 128.3 58.3 117.7 29.2 112.3L0 107Z" fill="#3c80ff"></path><path d="M0 638L29.2 634.5C58.3 631 116.7 624 174.8 593.5C233 563 291 509 349.2 496.3C407.3 483.7 465.7 512.3 523.8 506.8C582 501.3 640 461.7 698.2 497.7C756.3 533.7 814.7 645.3 872.8 659.8C931 674.3 989 591.7 1047.2 566.5C1105.3 541.3 1163.7 573.7 1221.8 604.2C1280 634.7 1338 663.3 1396.2 652.5C1454.3 641.7 1512.7 591.3 1570.8 587.8C1629 584.3 1687 627.7 1745.2 631.3C1803.3 635 1861.7 599 1890.8 581L1920 563L1920 247L1890.8 243.5C1861.7 240 1803.3 233 1745.2 247.5C1687 262 1629 298 1570.8 323.2C1512.7 348.3 1454.3 362.7 1396.2 357.2C1338 351.7 1280 326.3 1221.8 324.5C1163.7 322.7 1105.3 344.3 1047.2 349.8C989 355.3 931 344.7 872.8 324.8C814.7 305 756.3 276 698.2 263.3C640 250.7 582 254.3 523.8 256.2C465.7 258 407.3 258 349.2 252.7C291 247.3 233 236.7 174.8 236.7C116.7 236.7 58.3 247.3 29.2 252.7L0 258Z" fill="#0066ff"></path><path d="M0 735L29.2 758.5C58.3 782 116.7 829 174.8 814.7C233 800.3 291 724.7 349.2 695.8C407.3 667 465.7 685 523.8 695.8C582 706.7 640 710.3 698.2 746.3C756.3 782.3 814.7 850.7 872.8 850.7C931 850.7 989 782.3 1047.2 755.3C1105.3 728.3 1163.7 742.7 1221.8 780.5C1280 818.3 1338 879.7 1396.2 874.3C1454.3 869 1512.7 797 1570.8 786.2C1629 775.3 1687 825.7 1745.2 834.7C1803.3 843.7 1861.7 811.3 1890.8 795.2L1920 779L1920 561L1890.8 579C1861.7 597 1803.3 633 1745.2 629.3C1687 625.7 1629 582.3 1570.8 585.8C1512.7 589.3 1454.3 639.7 1396.2 650.5C1338 661.3 1280 632.7 1221.8 602.2C1163.7 571.7 1105.3 539.3 1047.2 564.5C989 589.7 931 672.3 872.8 657.8C814.7 643.3 756.3 531.7 698.2 495.7C640 459.7 582 499.3 523.8 504.8C465.7 510.3 407.3 481.7 349.2 494.3C291 507 233 561 174.8 591.5C116.7 622 58.3 629 29.2 632.5L0 636Z" fill="#0059dd"></path><path d="M0 1081L29.2 1081C58.3 1081 116.7 1081 174.8 1081C233 1081 291 1081 349.2 1081C407.3 1081 465.7 1081 523.8 1081C582 1081 640 1081 698.2 1081C756.3 1081 814.7 1081 872.8 1081C931 1081 989 1081 1047.2 1081C1105.3 1081 1163.7 1081 1221.8 1081C1280 1081 1338 1081 1396.2 1081C1454.3 1081 1512.7 1081 1570.8 1081C1629 1081 1687 1081 1745.2 1081C1803.3 1081 1861.7 1081 1890.8 1081L1920 1081L1920 777L1890.8 793.2C1861.7 809.3 1803.3 841.7 1745.2 832.7C1687 823.7 1629 773.3 1570.8 784.2C1512.7 795 1454.3 867 1396.2 872.3C1338 877.7 1280 816.3 1221.8 778.5C1163.7 740.7 1105.3 726.3 1047.2 753.3C989 780.3 931 848.7 872.8 848.7C814.7 848.7 756.3 780.3 698.2 744.3C640 708.3 582 704.7 523.8 693.8C465.7 683 407.3 665 349.2 693.8C291 722.7 233 798.3 174.8 812.7C116.7 827 58.3 780 29.2 756.5L0 733Z" fill="#004cbb"></path></svg>